# xmcd
#
# Track frame offsets: 
#        183
#        23848
#        42893
#        59813
#        85548
#        102030
#        122283
#        142165
#        163358
#
# Disc length: 2520 seconds
#
# Revision: 47
# Processed by: cddbd v1.5.2PL0 Copyright (c) Steve Scherf et al.
# Submitted via: ExactAudioCopyFreeDBPlugin 1.0
#
DISCID=7409d609
DTITLE=Dire Straits - Communiqué
DYEAR=1979
DGENRE=Rock
TTITLE0=Once upon a time in the west
TTITLE1=News
TTITLE2=Where do you think you're going ?
TTITLE3=Communiqué
TTITLE4=Lady writer
TTITLE5=Angel of mercy
TTITLE6=Portobello Belle
TTITLE7=Single handed sailor
TTITLE8=Follow me home
EXTD=
EXTT0=
EXTT1=
EXTT2=
EXTT3=
EXTT4=
EXTT5=
EXTT6=
EXTT7=
EXTT8=
PLAYORDER=
